<svg width="46" height="43" viewBox="0 0 46 43" fill="none" xmlns="http://www.w3.org/2000/svg">
<g clip-path="url(#clip0_198_16767)">
<path d="M20.3125 3.6875C16.6465 3.6875 13.2819 4.97644 10.6458 7.125V30.875C13.2819 33.0236 16.6465 34.3125 20.3125 34.3125C28.7694 34.3125 35.625 27.4569 35.625 19C35.625 10.5431 28.7694 3.6875 20.3125 3.6875Z" fill="#FF4155"/>
<path d="M33.8748 19C33.8748 20.4137 34.8136 21.6075 36.1011 21.9937C36.6329 22.1531 36.9998 22.6381 36.9998 23.1931V29.625C36.9998 30.3156 36.4404 30.875 35.7498 30.875H29.1498C28.7079 30.875 28.2886 30.6494 28.0723 30.2638C27.8586 29.8825 27.4498 29.625 26.9817 29.625L25.7317 19L26.9817 8.375C27.4498 8.375 27.8586 8.1175 28.0723 7.73625C28.2886 7.35062 28.7079 7.125 29.1498 7.125H35.7498C36.4404 7.125 36.9998 7.68437 36.9998 8.375V14.8069C36.9998 15.3619 36.6329 15.8469 36.1011 16.0063C34.8136 16.3925 33.8748 17.5863 33.8748 19Z" fill="#FFB332"/>
<path d="M30.7317 29.625V8.375C30.7317 7.68437 31.2911 7.125 31.9817 7.125H29.1498C28.7079 7.125 28.2886 7.35062 28.0723 7.73625C27.8586 8.1175 27.4498 8.375 26.9817 8.375L25.7317 19L26.9817 29.625C27.4498 29.625 27.8586 29.8825 28.0723 30.2638C28.2886 30.6494 28.7079 30.875 29.1498 30.875H31.9817C31.2911 30.875 30.7317 30.3156 30.7317 29.625Z" fill="#FF9433"/>
<path d="M26.9819 29.625C26.5131 29.625 26.105 29.8825 25.8913 30.2638C25.675 30.6494 25.255 30.875 24.8137 30.875H10.645C7.2 28.0675 5 23.7906 5 19C5 14.2094 7.2 9.9325 10.645 7.125H24.8137C25.255 7.125 25.675 7.35062 25.8913 7.73625C26.105 8.1175 26.5131 8.375 26.9819 8.375V29.625Z" fill="#FFDD40"/>
<path d="M10.6458 30.875H18.3337C16.9531 30.875 15.8337 29.7557 15.8337 28.375V9.625C15.8337 8.24431 16.9531 7.125 18.3337 7.125H10.6458C7.20069 9.93281 5 14.2091 5 19C5 23.7909 7.20069 28.0672 10.6458 30.875Z" fill="#FFC839"/>
<path d="M11.5283 26.3476C11.3181 26.3476 11.105 26.2944 10.9093 26.1826C10.3099 25.8401 10.1017 25.0765 10.4442 24.4771L17.4125 12.2828C17.755 11.6834 18.5185 11.4753 19.118 11.8177C19.7174 12.1602 19.9256 12.9238 19.5831 13.5232L12.6148 25.7175C12.3841 26.1212 11.9623 26.3476 11.5283 26.3476Z" fill="white"/>
<path d="M10.1629 19.076C8.30592 19.076 6.79517 17.4113 6.79517 15.3652C6.79517 13.319 8.30592 11.6543 10.1629 11.6543C12.0199 11.6543 13.5306 13.319 13.5306 15.3652C13.5306 17.4113 12.0199 19.076 10.1629 19.076ZM10.1629 14.1543C9.69254 14.1543 9.29517 14.7088 9.29517 15.3652C9.29517 16.0215 9.69248 16.576 10.1629 16.576C10.6332 16.576 11.0306 16.0215 11.0306 15.3652C11.0306 14.7088 10.6332 14.1543 10.1629 14.1543Z" fill="white"/>
<path d="M19.8636 26.3475C18.0066 26.3475 16.4958 24.6828 16.4958 22.6367C16.4958 20.5905 18.0066 18.9258 19.8636 18.9258C21.7205 18.9258 23.2313 20.5905 23.2313 22.6367C23.2313 24.6828 21.7205 26.3475 19.8636 26.3475ZM19.8636 21.4258C19.3933 21.4258 18.9958 21.9803 18.9958 22.6367C18.9958 23.293 19.3932 23.8475 19.8636 23.8475C20.334 23.8475 20.7313 23.293 20.7313 22.6367C20.7313 21.9803 20.3339 21.4258 19.8636 21.4258Z" fill="white"/>
<path d="M19.7094 21.4688C19.0746 21.3925 18.5823 20.853 18.5823 20.1977C18.5823 19.6167 18.9692 19.1268 19.4992 18.9697C17.813 19.1706 16.4958 20.748 16.4958 22.6585C16.4958 24.569 17.813 26.1464 19.4992 26.3473C18.9692 26.1902 18.5823 25.7003 18.5823 25.1194C18.5823 24.464 19.0746 23.9245 19.7094 23.8482C19.3097 23.7433 18.9958 23.2415 18.9958 22.6585C18.9958 22.0754 19.3097 21.5737 19.7094 21.4688Z" fill="#D3DCFB"/>
<path d="M10.0087 14.1739C9.37392 14.0976 8.8816 13.5581 8.8816 12.9027C8.8816 12.3218 9.26848 11.8319 9.79848 11.6748C8.11229 11.8757 6.79517 13.4531 6.79517 15.3636C6.79517 17.2741 8.11235 18.8515 9.79848 19.0524C9.26848 18.8953 8.8816 18.4054 8.8816 17.8244C8.8816 17.1691 9.37392 16.6296 10.0087 16.5533C9.60898 16.4484 9.29517 15.9466 9.29517 15.3636C9.29517 14.7806 9.60898 14.2789 10.0087 14.1739Z" fill="#D3DCFB"/>
<path d="M15.0137 20.2816C14.306 20.2816 13.7324 19.7079 13.7324 19.0003C13.7324 18.8695 13.7522 18.7434 13.7887 18.6245L10.4442 24.4773C10.1017 25.0767 10.3099 25.8403 10.9093 26.1828C11.105 26.2946 11.318 26.3478 11.5283 26.3478C11.9622 26.3478 12.384 26.1214 12.6148 25.7177L15.9627 19.8589C15.7284 20.1179 15.3905 20.2816 15.0137 20.2816Z" fill="#D3DCFB"/>
<path d="M25.2629 14.7368H22.7629C22.504 14.7368 22.2942 14.527 22.2942 14.2681C22.2942 14.0091 22.504 13.7993 22.7629 13.7993H25.2629C25.5219 13.7993 25.7317 14.0091 25.7317 14.2681C25.7317 14.527 25.5219 14.7368 25.2629 14.7368Z" fill="#FFC839"/>
<path d="M25.2629 17.2368H22.7629C22.504 17.2368 22.2942 17.027 22.2942 16.7681C22.2942 16.5091 22.504 16.2993 22.7629 16.2993H25.2629C25.5219 16.2993 25.7317 16.5091 25.7317 16.7681C25.7317 17.027 25.5219 17.2368 25.2629 17.2368Z" fill="#FFC839"/>
<path d="M24.7942 12.125C25.312 12.125 25.7317 11.7053 25.7317 11.1875C25.7317 10.6697 25.312 10.25 24.7942 10.25C24.2764 10.25 23.8567 10.6697 23.8567 11.1875C23.8567 11.7053 24.2764 12.125 24.7942 12.125Z" fill="#FFC839"/>
<path d="M31.2004 25.7188H28.7004C28.4415 25.7188 28.2317 25.5089 28.2317 25.25C28.2317 24.9911 28.4415 24.7812 28.7004 24.7812H31.2004C31.4594 24.7812 31.6692 24.9911 31.6692 25.25C31.6692 25.5089 31.4594 25.7188 31.2004 25.7188Z" fill="white"/>
<path d="M31.2004 28.2188H28.7004C28.4415 28.2188 28.2317 28.0089 28.2317 27.75C28.2317 27.4911 28.4415 27.2812 28.7004 27.2812H31.2004C31.4594 27.2812 31.6692 27.4911 31.6692 27.75C31.6692 28.0089 31.4594 28.2188 31.2004 28.2188Z" fill="white"/>
<path d="M29.1692 23.1069C29.687 23.1069 30.1067 22.6872 30.1067 22.1694C30.1067 21.6517 29.687 21.2319 29.1692 21.2319C28.6514 21.2319 28.2317 21.6517 28.2317 22.1694C28.2317 22.6872 28.6514 23.1069 29.1692 23.1069Z" fill="white"/>
<circle cx="34" cy="4" r="1" fill="#FF4155"/>
</g>
<circle cx="3" cy="3" r="3" fill="#FF4155"/>
<circle cx="4" cy="34" r="2" fill="#FF4155"/>
<circle cx="26.5" cy="42.5" r="0.5" fill="#FF4155"/>
<circle cx="43.5" cy="21.5" r="2.5" fill="#FF4155"/>
<defs>
<clipPath id="clip0_198_16767">
<rect width="32" height="32" fill="white" transform="translate(5 3)"/>
</clipPath>
</defs>
</svg>
